<svg id="Lag_1" data-name="Lag 1" xmlns="http://www.w3.org/2000/svg" viewBox="0 0 262.67 94"><defs><style>.cls-1{fill:#fff;}</style></defs><title>surfagency_logo_w</title><path class="cls-1" d="M245.09,3.95l1.4.23a15.51,15.51,0,0,1,8.41,4.23,15.66,15.66,0,0,1,4.55,8.24,19.42,19.42,0,0,1,.33,5.33h-13.3c0-.69,0-1.37,0-2.06A2.53,2.53,0,0,0,244,17.25l-.48,0H209.13a2.7,2.7,0,0,0-2.33.93,2.85,2.85,0,0,0-.66,1.81c0,1.37,0,2.74,0,4.11A2.72,2.72,0,0,0,209,26.89h27.87a12.86,12.86,0,0,1-.57,3.77,13,13,0,0,1-8.53,8.8,12.21,12.21,0,0,1-4.07.66H209.22a2.77,2.77,0,0,0-3.07,3c0,1.37,0,2.74,0,4.11a15.9,15.9,0,0,1-15.9,15.78c-3.15,0-6.3,0-9.44,0a15.28,15.28,0,0,1-9.4-3,36.73,36.73,0,0,1-3.5-3.18c-1.82-1.77-3.6-3.58-5.39-5.38l-5.77-5.76c-1.78-1.78-3.55-3.58-5.34-5.35a1,1,0,0,0-.61-.24q-4.51,0-9,0a2.53,2.53,0,0,0-2.47,2.45c0,1.39,0,2.77,0,4.16a16.6,16.6,0,0,1-.71,5,15.93,15.93,0,0,1-4,6.66,14.51,14.51,0,0,1-6.1,3.81,15.3,15.3,0,0,1-4.22.78q-18.3.09-36.6,0a14.52,14.52,0,0,1-8.55-3,15.72,15.72,0,0,1-5.24-6.5,15.28,15.28,0,0,1-1.3-5.28c0-.08,0-.17,0-.26-.13.84-.22,1.67-.38,2.48a15.17,15.17,0,0,1-2.61,5.94A15.75,15.75,0,0,1,63,61.69a15.92,15.92,0,0,1-6.46,1.37c-11.7,0-23.4,0-35.1,0A15.45,15.45,0,0,1,10.8,58.88a15.34,15.34,0,0,1-5-9.48c-.18-1.31-.13-2.65-.18-4H18.89c0,.53,0,1.07,0,1.62a2.6,2.6,0,0,0,1.84,2.63,3.29,3.29,0,0,0,.95.11H56.46a2.62,2.62,0,0,0,2.77-2.82q0-2,0-3.95a2.68,2.68,0,0,0-2.87-2.85q-17.36,0-34.73,0a15.89,15.89,0,0,1-15-10.29,16,16,0,0,1-1-5.78c0-1.46,0-2.92,0-4.37A15.31,15.31,0,0,1,9,10,14.71,14.71,0,0,1,16,5c1.25-.42,2.57-.62,3.86-.92a1.59,1.59,0,0,0,.24-.1H71.38l.77.12A15.72,15.72,0,0,1,81,8.49a15.46,15.46,0,0,1,4.74,11.14c0,1.64,0,3.27,0,4.91q0,11.18,0,22.35a2.89,2.89,0,0,0,.93,2.23,2.75,2.75,0,0,0,2,.63h34.46a2,2,0,0,0,.64,0,5.29,5.29,0,0,0,1.38-.62,2.67,2.67,0,0,0,.92-2.33q0-13.44,0-26.88a12.83,12.83,0,0,1,.32-2.62,18.07,18.07,0,0,1,4.88-9A13.41,13.41,0,0,1,138,4.42c.81-.19,1.62-.31,2.44-.47h38a3.55,3.55,0,0,0,.35.1c.89.17,1.79.26,2.66.51a15.65,15.65,0,0,1,6.79,4,15.08,15.08,0,0,1,4.07,6.86c.33,1.21.51,2.45.71,3.43.11-.65.19-1.58.42-2.46a16.5,16.5,0,0,1,11.54-11.9c.88-.24,1.8-.37,2.7-.54ZM72.52,41.09c0-1.95,0-4.31,0-6.67q0-7.1,0-14.19a3.08,3.08,0,0,0-.53-2,2.79,2.79,0,0,0-2.42-1.07H56.88q-17.5,0-35,0a2.76,2.76,0,0,0-3,3c0,1.26,0,2.53,0,3.79a3.51,3.51,0,0,0,.27,1.34,2.68,2.68,0,0,0,2.67,1.56q17.79,0,35.58,0a13.48,13.48,0,0,1,3.3.49,15.34,15.34,0,0,1,6.91,3.91,14.47,14.47,0,0,1,3.73,5.62C71.88,38.41,72.21,40,72.52,41.09Zm86.93-23.89H142.12A2.6,2.6,0,0,0,139.3,20q0,2,0,4.05a2.63,2.63,0,0,0,2.82,2.85h34.67a2.66,2.66,0,0,0,2.8-2.82c0-1.26,0-2.52,0-3.79,0-2.07-1-3.07-3.07-3.07Zm10.48,22.92,2.71,2.74,5.63,5.63a3.07,3.07,0,0,0,2.14,1.24h10.13a1.83,1.83,0,0,0,.72-.16A2.62,2.62,0,0,0,192.91,47q0-10.26,0-20.53v-.53a2.11,2.11,0,0,0-.21.65,15.76,15.76,0,0,1-2.8,6.86,15.6,15.6,0,0,1-12.69,6.65c-2.2.06-4.41,0-6.61,0Z"/><path class="cls-1" d="M139.23,78.22q0,2.27,0,4.53c0,1.76,0,3.52,0,5.28,0,.49-.25.57-.64.53s-.75.15-.75-.46q0-6.22,0-12.43c0-.32.13-.42.44-.46a1.13,1.13,0,0,1,1.27.68c1.83,3.24,3.7,6.45,5.67,9.67V85c0-3,0-6.08,0-9.12,0-.22.08-.6.21-.64a1.72,1.72,0,0,1,.93,0c.1,0,.17.36.17.56,0,1.72,0,3.45,0,5.17,0,2.29,0,4.59,0,6.88,0,.22-.15.61-.26.62-.39,0-.86.22-1.14-.28q-1.47-2.59-2.95-5.16c-.94-1.64-1.9-3.27-2.85-4.9Z"/><path class="cls-1" d="M105.32,77.9a6.18,6.18,0,0,0-2.87-1.45,5.6,5.6,0,0,0-6.24,3.79,5.54,5.54,0,0,0,6,7.13,8.15,8.15,0,0,0,2-.68.88.88,0,0,0,.57-1c-.06-1,0-2,0-2.93,0-.55.31-.54.69-.54s.71,0,.7.53c0,1.23,0,2.45,0,3.68a1,1,0,0,1-.31.62,6.7,6.7,0,0,1-7.49.91,6.86,6.86,0,1,1,7-11.74C106.45,77,106.45,77.07,105.32,77.9Z"/><path class="cls-1" d="M119.94,76.5v4.73h.69c1.44,0,2.88,0,4.32,0,.53,0,.66.2.66.7s-.14.66-.64.65c-1.47,0-2.95,0-4.42,0h-.6v4.72h.56c1.51,0,3,0,4.53,0,.58,0,.56.31.57.71s-.06.61-.55.61c-2,0-3.91,0-5.86,0-.4,0-.57-.1-.57-.53q0-6.13,0-12.26c0-.41.13-.56.55-.56,2,0,3.91,0,5.86,0,.53,0,.56.24.57.65s-.07.65-.58.64c-1.49,0-3,0-4.48,0Z"/><path class="cls-1" d="M81.73,88.57c-.38.1-.56-.11-.7-.51-.47-1.35-1-2.69-1.47-4a.47.47,0,0,0-.53-.37c-1.07,0-2.13,0-3.2,0a.48.48,0,0,0-.54.39c-.48,1.37-1,2.73-1.46,4.1-.13.36-1.09.65-1.33.37a.66.66,0,0,1,0-.54c.39-1.12.79-2.23,1.2-3.35.54-1.48,1.09-3,1.63-4.43s1.16-3.23,1.76-4.83c.06-.17.26-.29.4-.44a1.78,1.78,0,0,1,.33.42c.88,2.37,1.74,4.75,2.61,7.12q1,2.64,2,5.27C82.62,88.45,82.55,88.57,81.73,88.57Zm-5.81-6.22h3L77.44,78.2Z"/><path class="cls-1" d="M169.66,77.92a5.52,5.52,0,0,0-9.34,4.44,5.29,5.29,0,0,0,3.3,4.59,5.19,5.19,0,0,0,5.47-.64c.6-.44.69-.43,1.21.07.27.26.25.47,0,.71a6.51,6.51,0,0,1-4.81,1.64,6.61,6.61,0,0,1-6.05-4.39A6.87,6.87,0,0,1,169.32,76a8.06,8.06,0,0,1,.9.65c.37.27.36.54,0,.81Z"/><path class="cls-1" d="M187.94,81.71l1.69-2.93,1.86-3.22a1.29,1.29,0,0,1,1.37-.27.53.53,0,0,1,0,.49c-.68,1.22-1.39,2.43-2.09,3.64s-1.35,2.29-2,3.45a1.53,1.53,0,0,0-.16.71c0,1.4,0,2.81,0,4.21,0,.78,0,.78-.7.78s-.67,0-.67-.75c0-1.21-.05-2.42,0-3.62a3.62,3.62,0,0,0-.64-2.13c-.84-1.42-1.65-2.85-2.47-4.27-.38-.66-.77-1.31-1.15-2-.24-.43-.15-.52.32-.6.71-.12,1,.26,1.34.82C185.72,77.9,186.81,79.75,187.94,81.71Z"/></svg>